<?xml version="1.0" standalone="no"?>
<!DOCTYPE svg PUBLIC "-//W3C//DTD SVG 20010904//EN"
 "http://www.w3.org/TR/2001/REC-SVG-20010904/DTD/svg10.dtd">
<svg version="1.0" xmlns="http://www.w3.org/2000/svg"
 width="8334.000000pt" height="8334.000000pt" viewBox="0 0 8334.000000 8334.000000"
 preserveAspectRatio="xMidYMid meet">

<g transform="translate(0.000000,8334.000000) scale(0.100000,-0.100000)"
fill="#000000" stroke="none">
<path d="M26322 62244 l3 -596 35 -13 c19 -7 67 -23 105 -35 39 -13 75 -27 81
-31 6 -5 13 -6 16 -4 8 8 210 -65 232 -84 11 -9 16 -10 12 -3 -4 6 -6 12 -4
12 4 0 196 -68 218 -77 8 -3 20 -7 25 -9 6 -1 55 -19 110 -39 55 -20 108 -39
117 -42 10 -3 15 -10 11 -16 -3 -6 -1 -7 5 -3 16 9 242 -75 235 -88 -3 -5 -1
-6 6 -2 10 6 106 -23 135 -42 6 -3 20 -8 30 -9 11 -2 24 -7 30 -12 6 -4 25
-12 41 -16 27 -6 28 -8 10 -15 -15 -6 -12 -7 15 -7 19 0 58 -10 85 -23 28 -13
53 -22 58 -22 4 1 7 -2 7 -8 0 -5 7 -7 15 -4 8 4 15 2 15 -4 0 -5 16 -13 35
-16 19 -4 41 -13 49 -22 8 -8 19 -13 23 -12 13 4 73 -23 73 -33 0 -5 -8 -9
-17 -9 -17 -1 -17 -1 0 -11 12 -7 22 -7 35 1 15 10 15 11 -3 5 -16 -5 -17 -4
-8 6 10 10 27 6 80 -19 37 -17 83 -37 102 -44 l35 -14 -37 0 c-23 0 -32 3 -24
8 7 5 -5 7 -28 4 -27 -4 -32 -3 -15 2 20 6 22 9 9 14 -21 8 -38 -8 -32 -31 4
-17 31 -20 69 -7 23 7 104 -20 104 -35 0 -5 6 -9 13 -9 6 1 -1 12 -18 25 -23
19 -7 14 77 -23 69 -30 108 -52 108 -62 -1 -12 -3 -12 -14 3 -7 9 -18 17 -23
17 -6 0 -24 7 -39 15 -16 8 -38 12 -49 9 -17 -4 -18 -3 -5 6 13 10 12 11 -3 6
-10 -3 -21 -6 -23 -6 -2 0 -4 -4 -4 -10 0 -5 9 -10 20 -10 11 0 20 -4 20 -10
0 -5 5 -10 11 -10 8 0 8 5 -1 15 -9 11 -9 15 -1 15 6 0 14 -7 17 -15 4 -8 17
-15 30 -15 23 0 24 -2 24 -80 l0 -80 40 0 40 0 0 -80 0 -80 40 0 40 0 0 -120
0 -120 40 0 40 0 0 -80 0 -80 40 0 40 0 0 -120 0 -120 40 0 40 0 0 -80 0 -80
40 0 40 0 0 -120 0 -120 40 0 40 0 0 -120 0 -120 40 0 40 0 0 -80 0 -80 40 0
40 0 0 -120 0 -120 40 0 40 0 0 -80 0 -80 40 0 40 0 0 -120 0 -120 30 0 c28 0
30 -2 30 -40 0 -22 5 -40 10 -40 6 0 10 -18 10 -40 l0 -40 40 0 40 0 0 -120 0
-120 40 0 40 0 0 -40 c0 -39 -1 -40 -34 -40 -53 0 -52 -18 1 -27 l48 -8 -50
-6 c-49 -6 -49 -6 -10 -8 53 -2 76 -17 27 -18 -20 0 -66 -5 -102 -11 -36 -7
-110 -12 -165 -13 -68 -1 -90 -4 -70 -9 29 -7 29 -8 -9 -9 -32 -1 -37 2 -32
17 4 10 -1 8 -13 -7 -15 -20 -24 -23 -54 -18 -20 3 -37 2 -39 -3 -2 -5 -34
-11 -73 -14 -38 -2 -77 -7 -85 -10 -12 -4 -245 -37 -445 -62 -22 -3 -58 -8
-80 -11 -22 -3 -53 -7 -70 -8 -16 -2 -37 -5 -45 -8 -18 -7 -287 -48 -297 -45
-5 0 -15 -1 -23 -5 -8 -3 -31 -8 -50 -10 -141 -17 -1189 -209 -1525 -280
l-160 -34 0 -13334 0 -13334 4678 -3 4677 -2 0 11695 0 11695 20 0 c11 0 131
-11 266 -25 2450 -249 4783 -1208 6719 -2760 263 -211 450 -372 705 -608 69
-63 126 -114 128 -112 4 3 -164 282 -323 535 -531 845 -1103 1654 -1714 2420
-112 140 -430 530 -441 540 -3 3 -28 32 -55 65 -149 180 -552 636 -754 855
-432 465 -1075 1108 -1511 1510 -3177 2929 -7044 5044 -11216 6135 -412 107
-1124 275 -1169 275 -14 0 -15 -63 -13 -596z m2352 -1493 c4 -5 0 -12 -6 -15
-7 -3 -1 -3 15 0 16 4 27 2 27 -5 0 -6 3 -10 8 -10 22 4 42 -2 37 -11 -4 -6
-15 -6 -31 0 -33 13 -47 13 -39 0 10 -16 -11 -12 -25 5 -7 8 -16 13 -20 10 -5
-3 -11 -1 -15 5 -3 5 1 10 10 10 9 0 13 5 10 10 -3 6 1 10 9 10 8 0 17 -4 20
-9z m176 -81 c13 -9 13 -10 0 -10 -9 -1 -6 -6 10 -16 16 -10 18 -13 5 -8 -11
4 -30 8 -42 8 -24 1 -20 15 5 17 11 1 8 4 -8 9 -21 7 -21 8 -5 9 11 0 27 -4
35 -9z m50 -20 c8 -5 11 -10 5 -10 -5 0 -17 5 -25 10 -8 5 -10 10 -5 10 6 0
17 -5 25 -10z m45 -28 c-3 -3 -11 0 -18 7 -9 10 -8 11 6 5 10 -3 15 -9 12 -12z
m-118 2 c-3 -3 -12 -4 -19 -1 -8 3 -5 6 6 6 11 1 17 -2 13 -5z m158 -14 c3 -5
2 -10 -4 -10 -5 0 -13 5 -16 10 -3 6 -2 10 4 10 5 0 13 -4 16 -10z m40 -20 c3
-5 2 -10 -4 -10 -5 0 -13 5 -16 10 -3 6 -2 10 4 10 5 0 13 -4 16 -10z m-10
-30 c-3 -5 -12 -10 -18 -10 -7 0 -6 4 3 10 19 12 23 12 15 0z m160 -48 c-3 -3
-11 0 -18 7 -9 10 -8 11 6 5 10 -3 15 -9 12 -12z m90 -50 c-5 -5 -63 26 -69
37 -4 5 12 0 33 -12 22 -12 38 -23 36 -25z m75 -52 c0 -5 -5 -10 -11 -10 -5 0
-7 5 -4 10 3 6 8 10 11 10 2 0 4 -4 4 -10z m1177 -2486 c-3 -3 -12 -4 -19 -1
-8 3 -5 6 6 6 11 1 17 -2 13 -5z m-780 -30 c-3 -3 -12 -4 -19 -1 -8 3 -5 6 6
6 11 1 17 -2 13 -5z m66 -1 c-7 -2 -21 -2 -30 0 -10 3 -4 5 12 5 17 0 24 -2
18 -5z m414 1 c-3 -3 -12 -4 -19 -1 -8 3 -5 6 6 6 11 1 17 -2 13 -5z m-529
-11 c-10 -2 -26 -2 -35 0 -10 3 -2 5 17 5 19 0 27 -2 18 -5z m262 -1 c-29 -4
-32 -6 -15 -12 15 -7 16 -9 4 -9 -9 -1 -22 6 -29 14 -11 13 -7 15 31 13 42 -1
42 -1 9 -6z m83 1 c-7 -2 -19 -2 -25 0 -7 3 -2 5 12 5 14 0 19 -2 13 -5z
m-263 -13 c-19 -13 -30 -13 -30 0 0 6 10 10 23 10 18 0 19 -2 7 -10z m110 -10
c-8 -5 -33 -9 -55 -8 l-40 1 45 7 c25 4 50 8 55 8 6 1 3 -3 -5 -8z m-143 -16
c-3 -3 -12 -4 -19 -1 -8 3 -5 6 6 6 11 1 17 -2 13 -5z"/>
<path d="M28005 60989 c-4 -11 -4 -23 -1 -26 3 -4 6 1 6 11 0 23 34 17 38 -7
2 -11 -3 -17 -14 -17 -10 0 -15 -3 -11 -6 8 -8 47 5 47 17 0 12 -37 49 -49 49
-5 0 -13 -9 -16 -21z"/>
<path d="M28108 60973 c7 -3 16 -2 19 1 4 3 -2 6 -13 5 -11 0 -14 -3 -6 -6z"/>
<path d="M28400 60800 c0 -5 5 -10 10 -10 6 0 10 5 10 10 0 6 -4 10 -10 10 -5
0 -10 -4 -10 -10z"/>
<path d="M28448 60783 c7 -3 16 -2 19 1 4 3 -2 6 -13 5 -11 0 -14 -3 -6 -6z"/>
<path d="M48117 58919 c7 -7 15 -10 18 -7 3 3 -2 9 -12 12 -14 6 -15 5 -6 -5z"/>
<path d="M48327 58729 c7 -7 15 -10 18 -7 3 3 -2 9 -12 12 -14 6 -15 5 -6 -5z"/>
<path d="M48430 58686 c0 -2 8 -10 18 -17 15 -13 16 -12 3 4 -13 16 -21 21
-21 13z"/>
<path d="M48514 58616 c22 -20 42 -36 44 -36 9 0 -23 32 -52 52 -25 17 -23 14
8 -16z"/>
<path d="M29250 58580 c0 -29 4 -40 15 -40 11 0 15 11 15 40 0 29 -4 40 -15
40 -11 0 -15 -11 -15 -40z"/>
<path d="M48525 58570 c3 -5 8 -10 11 -10 2 0 4 5 4 10 0 6 -5 10 -11 10 -5 0
-7 -4 -4 -10z"/>
<path d="M48726 58442 c-3 -5 1 -9 9 -9 8 0 12 4 9 9 -3 4 -7 8 -9 8 -2 0 -6
-4 -9 -8z"/>
<path d="M48756 58405 c-10 -8 -24 -12 -30 -8 -6 3 -8 2 -3 -2 11 -12 47 -14
40 -2 -4 6 0 8 10 4 11 -4 14 -2 10 9 -3 7 -6 14 -7 14 0 0 -10 -7 -20 -15z"/>
<path d="M48811 58374 c9 -10 15 -24 12 -30 -2 -6 4 -14 13 -18 14 -5 15 -4 4
9 -15 18 0 20 19 3 10 -9 12 -10 7 -1 -4 7 -21 22 -39 34 -27 19 -30 20 -16 3z"/>
<path d="M48880 58326 c0 -2 8 -10 18 -17 15 -13 16 -12 3 4 -13 16 -21 21
-21 13z"/>
<path d="M48810 58316 c0 -2 7 -7 16 -10 8 -3 12 -2 9 4 -6 10 -25 14 -25 6z"/>
<path d="M48920 58286 c0 -2 12 -12 28 -21 l27 -18 -19 21 c-17 20 -36 29 -36
18z"/>
<path d="M49005 58216 c9 -13 24 -27 33 -31 10 -4 5 6 -12 24 -36 37 -42 39
-21 7z"/>
<path d="M49005 58150 c3 -5 8 -10 11 -10 2 0 4 5 4 10 0 6 -5 10 -11 10 -5 0
-7 -4 -4 -10z"/>
<path d="M49123 58105 c0 -8 4 -12 9 -9 5 3 6 10 3 15 -9 13 -12 11 -12 -6z"/>
<path d="M49203 58008 c-1 -13 3 -18 11 -15 8 3 20 0 27 -6 10 -10 11 -9 2 3
-6 8 -11 19 -10 24 1 5 -5 10 -13 11 -10 2 -17 -5 -17 -17z"/>
<path d="M49268 57994 c12 -8 20 -20 17 -25 -4 -5 6 -14 21 -19 21 -8 25 -13
15 -23 -9 -9 -14 -9 -20 1 -7 11 -10 10 -15 -3 -9 -24 -7 -32 4 -15 8 12 10
12 10 1 0 -11 5 -10 20 4 20 19 20 19 -17 57 -20 21 -42 38 -47 38 -6 0 0 -7
12 -16z"/>
<path d="M49338 57912 c-11 -15 -11 -16 3 -5 13 11 20 8 40 -13 22 -23 59 -50
59 -41 0 1 -20 19 -44 40 -41 34 -45 35 -58 19z"/>
<path d="M49364 57860 c0 -16 3 -27 6 -25 8 5 6 42 -1 50 -3 2 -5 -8 -5 -25z"/>
<path d="M49473 57814 c9 -11 17 -26 17 -32 0 -7 5 -12 10 -12 18 0 11 16 -17
41 -20 17 -23 18 -10 3z"/>
<path d="M29137 57800 c3 -11 8 -20 12 -20 4 0 7 9 7 20 0 11 -6 20 -12 20 -7
0 -10 -8 -7 -20z"/>
<path d="M29215 57800 c4 -6 11 -8 16 -5 14 9 11 15 -7 15 -8 0 -12 -5 -9 -10z"/>
<path d="M48361 57774 c0 -11 3 -14 6 -6 3 7 2 16 -1 19 -3 4 -6 -2 -5 -13z"/>
<path d="M49445 57761 c-6 -11 13 -26 22 -17 4 3 1 6 -6 6 -7 0 -9 5 -6 10 3
6 4 10 1 10 -3 0 -7 -4 -11 -9z"/>
<path d="M49480 57756 c0 -2 7 -7 16 -10 8 -3 12 -2 9 4 -6 10 -25 14 -25 6z"/>
<path d="M49565 57727 c10 -15 20 -25 23 -22 3 3 -5 16 -17 28 l-23 22 17 -28z"/>
<path d="M49548 57663 c7 -3 16 -2 19 1 4 3 -2 6 -13 5 -11 0 -14 -3 -6 -6z"/>
<path d="M49602 57656 c7 -8 15 -12 17 -11 5 6 -10 25 -20 25 -5 0 -4 -6 3
-14z"/>
<path d="M49644 57603 c2 -12 -1 -24 -8 -27 -8 -3 -8 -5 1 -5 17 -1 22 11 12
34 -9 19 -9 19 -5 -2z"/>
<path d="M49632 57530 c0 -14 2 -19 5 -12 2 6 2 18 0 25 -3 6 -5 1 -5 -13z"/>
<path d="M49601 57524 c0 -11 3 -14 6 -6 3 7 2 16 -1 19 -3 4 -6 -2 -5 -13z"/>
<path d="M49687 57394 c-3 -5 1 -15 9 -22 16 -14 18 -5 5 17 -5 7 -11 9 -14 5z"/>
<path d="M49704 57335 c-3 -8 2 -24 11 -37 l17 -23 -8 25 c-4 14 -7 31 -7 38
0 16 -6 15 -13 -3z"/>
<path d="M49691 57274 c0 -11 3 -14 6 -6 3 7 2 16 -1 19 -3 4 -6 -2 -5 -13z"/>
<path d="M49716 57258 c3 -5 10 -6 15 -3 13 9 11 12 -6 12 -8 0 -12 -4 -9 -9z"/>
<path d="M49711 57228 c0 -9 -4 -25 -7 -35 -5 -14 -4 -15 5 -7 7 7 11 22 8 35
-2 13 -5 16 -6 7z"/>
<path d="M49730 57218 c0 -16 5 -28 10 -28 13 0 13 20 0 40 -8 12 -10 9 -10
-12z"/>
<path d="M49681 57194 c0 -11 3 -14 6 -6 3 7 2 16 -1 19 -3 4 -6 -2 -5 -13z"/>
<path d="M49760 57124 c0 -10 5 -26 10 -34 8 -11 9 -7 4 15 -8 37 -14 45 -14
19z"/>
<path d="M49763 57031 c0 -17 5 -27 10 -24 5 3 13 -1 18 -8 7 -11 9 -10 9 4 0
9 -4 17 -9 17 -5 0 -7 10 -5 23 2 12 1 16 -2 8 -5 -9 -8 -10 -14 -2 -3 7 -7
-2 -7 -18z"/>
<path d="M49770 56970 c0 -5 4 -10 10 -10 13 0 6 -81 -9 -106 -9 -16 -11 -11
-9 31 l3 50 -42 3 -43 3 0 -40 0 -41 -40 0 -40 0 0 -80 0 -80 -40 0 -40 0 0
-40 0 -40 -40 0 -40 0 0 -40 0 -40 -40 0 -40 0 0 -40 0 -40 -40 0 -40 0 0 -40
0 -40 -40 0 -40 0 0 -40 0 -40 -40 0 -40 0 0 -40 0 -40 -40 0 -40 0 0 -40 0
-40 -40 0 -40 0 0 -40 0 -40 -40 0 -40 0 0 -40 0 -40 -40 0 -40 0 0 -40 0 -40
-40 0 -40 0 0 -80 0 -80 -45 0 c-43 0 -44 -1 -51 -36 -4 -20 -2 -94 5 -163 6
-69 11 -145 11 -169 0 -29 4 -41 11 -36 15 9 29 -14 29 -48 0 -16 5 -28 10
-28 6 0 10 12 11 28 1 22 3 20 10 -12 5 -22 7 -44 5 -50 -2 -6 -5 0 -6 14 -1
23 -2 23 -11 7 -8 -14 -8 -22 0 -30 15 -15 14 -28 -1 -25 -7 2 -15 -10 -20
-27 -5 -21 -6 -12 -4 30 2 33 0 74 -3 90 -7 30 -7 29 -14 -11 -6 -40 7 -322
16 -331 3 -2 8 30 12 71 10 109 22 147 21 69 0 -35 -4 -63 -8 -63 -5 0 -8 -18
-8 -39 0 -22 -5 -43 -11 -47 -9 -5 -10 -39 -5 -118 4 -61 7 -142 6 -181 0 -38
4 -90 9 -115 6 -25 13 -58 15 -75 5 -26 5 -27 -2 -5 -5 14 -9 -247 -9 -580 -1
-1054 -51 -1848 -178 -2847 -14 -105 -25 -198 -25 -207 0 -32 -19 -15 -57 50
-83 145 -93 159 -103 156 -6 -1 -9 2 -5 8 4 6 -33 76 -82 157 -48 80 -100 167
-114 192 -15 25 -32 45 -39 43 -6 -1 -9 2 -5 8 7 11 -207 366 -233 388 -9 6
-12 12 -8 12 5 0 3 7 -4 15 -7 8 -16 12 -21 9 -5 -3 -6 1 -4 8 3 7 -9 36 -27
63 -18 27 -41 61 -50 77 -107 173 -172 267 -181 261 -6 -3 -7 -1 -3 5 11 17
-142 238 -162 234 -15 -2 -15 -1 -2 7 13 9 13 13 -3 28 -16 16 -17 16 -12 2 4
-10 2 -20 -3 -23 -5 -3 -8 7 -6 22 4 37 -111 213 -135 205 -13 -4 -13 -3 -2 5
12 9 12 13 2 26 -7 9 -18 13 -24 9 -6 -3 -7 -1 -3 6 11 18 -65 125 -76 109 -6
-9 -7 -6 -4 8 4 13 -1 29 -14 44 -12 13 -30 39 -41 57 -12 18 -26 30 -31 27
-7 -4 -8 -2 -4 4 4 6 -10 35 -31 64 -20 29 -50 72 -66 96 -31 45 -42 53 -32
23 3 -11 2 -22 -3 -25 -5 -3 -8 8 -7 25 2 30 -60 139 -78 139 -5 0 1 -13 12
-29 27 -37 27 -49 1 -26 -23 21 -28 4 -5 -19 14 -13 13 -15 -3 -13 -15 1 -18
9 -16 51 1 44 -4 59 -39 111 -22 33 -45 65 -51 70 -6 6 -19 23 -29 38 -10 16
-23 25 -29 21 -7 -5 -9 -2 -5 8 5 15 -83 149 -104 156 -5 2 -9 8 -9 14 0 5
-25 43 -56 84 -45 60 -59 72 -70 63 -18 -14 -18 -20 -1 -13 17 6 108 -101 121
-143 4 -13 11 -23 16 -23 4 0 8 -6 7 -12 0 -7 1 -22 2 -33 2 -19 3 -19 10 -2
6 16 11 13 36 -25 17 -23 32 -45 35 -48 5 -5 5 -20 1 -62 -1 -14 -10 -18 -41
-18 l-40 0 0 -40 0 -40 -40 0 -40 0 0 -40 0 -40 -40 0 -40 0 0 -40 0 -40 -40
0 -40 0 0 -40 0 -40 -40 0 -40 0 0 -40 0 -40 -40 0 -40 0 0 -80 0 -80 -40 0
-40 0 0 -40 0 -40 -40 0 -40 0 0 -40 0 -40 -40 0 -40 0 0 -40 0 -40 -40 0 -40
0 0 -40 0 -40 -40 0 -40 0 0 -40 0 -40 -44 0 c-41 0 -44 2 -52 33 l-8 32 -3
-33 c-4 -34 -23 -35 -23 -1 0 10 -4 19 -10 19 -5 0 -10 -5 -10 -11 0 -11 48
-101 59 -109 3 -3 6 -10 6 -16 0 -21 80 -162 89 -157 5 3 6 1 2 -5 -4 -6 -2
-19 3 -29 5 -10 17 -34 26 -53 9 -19 29 -59 45 -89 25 -47 29 -51 39 -35 10
18 10 17 11 -3 0 -13 -5 -23 -11 -23 -5 0 6 -31 27 -70 37 -70 47 -81 58 -57
4 6 4 -3 1 -21 -3 -25 6 -53 39 -120 76 -151 278 -575 295 -619 7 -18 19 -38
27 -44 8 -6 14 -18 14 -26 0 -8 11 -38 24 -66 13 -29 43 -95 66 -147 23 -52
57 -126 75 -165 18 -38 49 -109 69 -156 30 -75 77 -181 107 -244 15 -33 98
-232 151 -365 28 -69 58 -143 68 -165 29 -66 114 -278 195 -485 110 -282 126
-325 200 -530 37 -102 71 -194 75 -205 51 -126 320 -913 360 -1052 l18 -63
-78 -247 c-120 -380 -235 -714 -342 -998 -16 -44 -43 -116 -60 -160 -16 -44
-38 -100 -48 -125 -11 -25 -48 -119 -84 -210 -62 -158 -172 -426 -213 -520
l-20 -45 24 -75 c56 -177 175 -602 226 -805 190 -763 300 -1489 359 -2370 19
-290 16 -1189 -5 -1495 -49 -709 -142 -1369 -277 -1965 -22 -98 -40 -181 -40
-184 0 -7 53 77 71 114 9 17 49 93 91 170 139 259 362 696 474 932 117 246
211 445 256 543 63 138 161 357 183 410 13 30 42 98 65 150 46 104 66 153 195
465 48 116 100 246 117 290 17 44 38 100 48 125 9 25 61 162 114 305 54 143
115 305 136 360 47 123 285 830 341 1015 312 1028 511 1812 693 2720 136 678
222 1221 320 2025 69 556 127 1267 161 1950 40 806 25 2252 -30 2920 -2 33 -7
103 -11 155 -3 52 -12 167 -19 255 -8 88 -16 194 -19 235 -6 81 -38 385 -62
595 -8 72 -17 148 -19 170 -10 89 -27 228 -46 363 -11 79 -21 152 -22 163 -1
10 -4 19 -7 19 -3 0 -6 30 -7 67 -1 37 -7 69 -13 71 -5 2 -8 8 -4 13 5 9 -12
150 -22 179 -3 8 -8 39 -10 69 -2 29 -9 71 -15 93 -6 22 -12 65 -15 96 -3 31
-9 59 -15 62 -5 4 -7 14 -4 22 4 9 1 36 -5 59 -7 24 -13 58 -15 74 -5 53 -17
129 -26 170 -6 22 -12 54 -15 70 -3 17 -8 37 -11 45 -3 8 -6 24 -7 35 -5 63
-20 145 -27 145 -5 0 -8 8 -7 18 2 9 -2 42 -7 72 -9 55 -9 55 -16 20 -6 -27
-7 -21 -5 24 3 68 -28 227 -36 186 -3 -14 -4 -5 -2 20 2 28 1 40 -5 31 -5 -8
-9 6 -9 40 0 30 -9 81 -21 114 -20 61 -23 60 -23 -10 1 -22 -2 -32 -4 -22 -3
9 -9 17 -14 17 -5 0 -7 -7 -4 -15 4 -8 1 -15 -5 -15 -13 0 -15 27 -2 34 5 4
12 24 16 46 4 22 11 40 16 40 5 0 9 10 9 22 0 28 -11 16 -32 -35 -24 -59 -22
-28 2 35 22 58 25 71 10 48 -7 -11 -11 -3 -16 30 -4 25 -8 60 -8 77 0 23 -6
35 -18 39 -10 3 -18 10 -18 16 0 5 7 8 15 4 17 -6 21 9 5 19 -6 4 -8 16 -5 28
5 17 4 18 -4 8 -8 -12 -11 -10 -16 11 -4 15 -4 31 -1 37 8 13 -11 61 -24 61
-5 0 -10 -4 -10 -10z m31 -133 c-8 -8 -11 -3 -11 19 1 25 2 27 11 11 8 -14 8
-22 0 -30z m-21 -27 c0 -5 -5 -10 -11 -10 -5 0 -7 5 -4 10 3 6 8 10 11 10 2 0
4 -4 4 -10z m25 -20 c3 -5 1 -10 -4 -10 -6 0 -11 5 -11 10 0 6 2 10 4 10 3 0
8 -4 11 -10z m92 -322 c-3 -8 -6 -5 -6 6 -1 11 2 17 5 13 3 -3 4 -12 1 -19z
m50 -240 c-3 -7 -5 -2 -5 12 0 14 2 19 5 13 2 -7 2 -19 0 -25z m-14 -28 c3
-11 1 -18 -4 -14 -5 3 -9 12 -9 20 0 20 7 17 13 -6z m34 -42 c-3 -8 -6 -5 -6
6 -1 11 2 17 5 13 3 -3 4 -12 1 -19z m-7 -36 c0 -10 -7 -19 -15 -19 -8 0 -15
7 -15 14 0 8 5 11 10 8 6 -3 10 -1 10 4 0 6 2 11 5 11 3 0 5 -8 5 -18z m60
-231 c0 -6 -4 -13 -10 -16 -5 -3 -10 1 -10 9 0 9 5 16 10 16 6 0 10 -4 10 -9z
m0 -78 c-11 -17 -11 -17 -6 0 3 10 6 24 7 30 0 9 2 9 5 0 3 -7 0 -20 -6 -30z
m17 -85 c-3 -7 -5 -2 -5 12 0 14 2 19 5 13 2 -7 2 -19 0 -25z m23 -51 c0 -5
-4 -5 -10 -2 -5 3 -10 14 -10 23 0 15 2 15 10 2 5 -8 10 -19 10 -23z m-1423
-84 c-3 -10 -5 -2 -5 17 0 19 2 27 5 18 2 -10 2 -26 0 -35z m30 -365 c-3 -7
-5 -2 -5 12 0 14 2 19 5 13 2 -7 2 -19 0 -25z m1430 -35 c-3 -10 -5 -2 -5 17
0 19 2 27 5 18 2 -10 2 -26 0 -35z m-1400 -35 c-3 -8 -6 -5 -6 6 -1 11 2 17 5
13 3 -3 4 -12 1 -19z m-20 -80 c-3 -7 -5 -2 -5 12 0 14 2 19 5 13 2 -7 2 -19
0 -25z m1500 -140 c-3 -7 -5 -2 -5 12 0 14 2 19 5 13 2 -7 2 -19 0 -25z
m-1490 -70 c-3 -7 -5 -2 -5 12 0 14 2 19 5 13 2 -7 2 -19 0 -25z m22 -32 c-7
-31 -14 -54 -17 -51 -3 3 1 30 8 60 7 30 15 53 18 51 2 -3 -2 -30 -9 -60z m1
-141 c-4 -28 -8 -39 -9 -25 -1 14 -4 42 -6 63 -3 30 -2 35 9 25 9 -9 10 -28 6
-63z m1484 -10 c3 -8 1 -15 -4 -15 -6 0 -10 7 -10 15 0 8 2 15 4 15 2 0 6 -7
10 -15z m-1484 -105 c0 -22 -4 -40 -10 -40 -11 0 -13 39 -4 64 10 26 14 19 14
-24z m10 -242 c0 -49 -5 -47 -13 5 -3 20 -2 37 4 37 5 0 9 -19 9 -42z m-2047
-805 c-20 -8 -15 -26 5 -18 14 5 15 4 5 -6 -10 -10 -16 -10 -24 -2 -13 13 -4
33 14 32 9 0 9 -2 0 -6z m68 -94 c8 -17 8 -20 -1 -14 -8 5 -11 3 -8 -6 3 -8
11 -13 17 -11 6 1 11 -2 11 -8 0 -5 -3 -10 -7 -10 -19 1 -31 17 -30 43 2 33 3
33 18 6z m49 -81 c0 -19 -2 -20 -10 -8 -13 19 -13 30 0 30 6 0 10 -10 10 -22z
m-35 1 c4 -6 4 -13 0 -17 -4 -4 -10 -1 -12 6 -3 6 -9 10 -14 6 -5 -3 -9 0 -9
5 0 14 27 14 35 0z m168 -189 c-5 -19 -23 -29 -23 -12 0 7 20 32 26 32 1 0 0
-9 -3 -20z m47 -52 c9 -20 9 -21 -2 -7 -7 9 -19 14 -25 12 -7 -3 -13 0 -13 6
0 20 29 11 40 -11z m-60 -4 c0 -14 -3 -14 -15 -4 -8 7 -15 14 -15 16 0 2 7 4
15 4 8 0 15 -7 15 -16z m100 -59 c13 -16 6 -35 -15 -35 -18 0 -28 17 -21 35 7
19 20 19 36 0z m80 -113 c0 -2 -10 -2 -22 0 -18 2 -23 10 -24 36 l-2 33 24
-33 c13 -17 24 -34 24 -36z m64 -81 c3 -5 -1 -14 -9 -21 -13 -11 -14 -10 -9 5
5 13 4 16 -4 11 -7 -4 -12 -2 -12 3 0 13 27 15 34 2z m11 -51 c-7 -21 10 -28
18 -7 4 9 6 9 6 -1 1 -15 -21 -25 -44 -20 -14 3 -14 5 0 26 20 27 28 28 20 2z
m50 -74 c0 -15 -4 -21 -9 -16 -5 5 -6 16 -3 24 9 22 12 20 12 -8z m100 -116
c3 -6 -1 -17 -9 -26 -19 -18 -22 -4 -3 15 10 11 9 13 -6 8 -11 -4 -16 -3 -12
3 8 13 22 13 30 0z m31 -57 c-7 -7 -26 7 -26 19 0 6 6 6 15 -2 9 -7 13 -15 11
-17z m-1671 -41 c0 -18 -20 -15 -23 4 -3 10 1 15 10 12 7 -3 13 -10 13 -16z
m1735 -52 c0 -5 -5 -10 -11 -10 -5 0 -7 5 -4 10 3 6 8 10 11 10 2 0 4 -4 4
-10z m-1668 -17 c-20 -4 -22 -9 -16 -36 8 -38 13 -49 22 -43 4 2 7 -9 8 -25
l1 -30 -18 31 c-11 17 -19 39 -19 49 0 10 -7 24 -15 31 -25 21 -17 30 23 29
24 -1 29 -3 14 -6z m18 -44 c0 -11 -4 -18 -10 -14 -5 3 -7 12 -3 20 7 21 13
19 13 -6z m1702 -61 c-7 -7 -12 -8 -12 -2 0 6 3 14 7 17 3 4 9 5 12 2 2 -3 -1
-11 -7 -17z m13 -28 c3 -5 1 -10 -4 -10 -6 0 -11 5 -11 10 0 6 2 10 4 10 3 0
8 -4 11 -10z m-1638 -77 c-3 -10 -5 -4 -5 12 0 17 2 24 5 18 2 -7 2 -21 0 -30z
m-24 -8 c4 -8 2 -17 -3 -20 -6 -4 -10 3 -10 14 0 25 6 27 13 6z m1748 0 c11 6
11 5 2 -5 -12 -14 -33 -6 -33 13 0 8 3 7 9 -2 5 -8 14 -10 22 -6z m59 -75 c6
-11 8 -20 6 -20 -3 0 -10 9 -16 20 -6 11 -8 20 -6 20 3 0 10 -9 16 -20z m3
-45 c-3 -9 -8 -14 -10 -11 -3 3 -2 9 2 15 9 16 15 13 8 -4z m-1713 -85 c0 -5
-2 -10 -4 -10 -3 0 -8 5 -11 10 -3 6 -1 10 4 10 6 0 11 -4 11 -10z m137 -282
c-3 -7 -5 -2 -5 12 0 14 2 19 5 13 2 -7 2 -19 0 -25z m86 -138 c-3 -11 -7 -20
-9 -20 -2 0 -4 9 -4 20 0 11 4 20 9 20 5 0 7 -9 4 -20z"/>
<path d="M46980 53045 c0 -8 7 -15 16 -15 14 0 14 3 4 15 -7 8 -14 15 -16 15
-2 0 -4 -7 -4 -15z"/>
<path d="M47050 52960 c0 -5 5 -10 11 -10 5 0 7 5 4 10 -3 6 -8 10 -11 10 -2
0 -4 -4 -4 -10z"/>
<path d="M48531 56844 c0 -11 3 -14 6 -6 3 7 2 16 -1 19 -3 4 -6 -2 -5 -13z"/>
<path d="M48551 56844 c0 -11 3 -14 6 -6 3 7 2 16 -1 19 -3 4 -6 -2 -5 -13z"/>
<path d="M48512 56800 c0 -14 2 -19 5 -12 2 6 2 18 0 25 -3 6 -5 1 -5 -13z"/>
<path d="M49180 56795 c-10 -12 -10 -15 4 -15 9 0 16 7 16 15 0 8 -2 15 -4 15
-2 0 -9 -7 -16 -15z"/>
<path d="M48541 56764 c0 -11 3 -14 6 -6 3 7 2 16 -1 19 -3 4 -6 -2 -5 -13z"/>
<path d="M48531 56684 c0 -11 3 -14 6 -6 3 7 2 16 -1 19 -3 4 -6 -2 -5 -13z"/>
<path d="M48542 56590 c0 -14 2 -19 5 -12 2 6 2 18 0 25 -3 6 -5 1 -5 -13z"/>
<path d="M48536 56542 c-3 -5 1 -9 9 -9 8 0 15 4 15 9 0 4 -4 8 -9 8 -6 0 -12
-4 -15 -8z"/>
<path d="M48575 56168 c-3 -13 -1 -43 4 -68 l9 -45 1 68 c1 68 -4 85 -14 45z"/>
<path d="M48622 56160 c0 -14 2 -19 5 -12 2 6 2 18 0 25 -3 6 -5 1 -5 -13z"/>
<path d="M48602 56135 c0 -16 2 -22 5 -12 2 9 2 23 0 30 -3 6 -5 -1 -5 -18z"/>
<path d="M48618 56076 c-3 -14 -1 -31 3 -38 6 -8 9 1 9 25 0 42 -6 48 -12 13z"/>
<path d="M48600 56003 c0 -6 -3 -20 -6 -30 -5 -14 -4 -15 4 -4 14 20 27 -47
18 -97 -3 -21 -2 -51 2 -67 6 -21 9 -3 10 62 1 64 -2 99 -13 119 -8 16 -15 24
-15 17z"/>
<path d="M48602 55920 c0 -14 2 -19 5 -12 2 6 2 18 0 25 -3 6 -5 1 -5 -13z"/>
<path d="M45230 55396 c0 -2 8 -10 18 -17 15 -13 16 -12 3 4 -13 16 -21 21
-21 13z"/>
<path d="M45610 54933 c1 -11 50 -70 50 -59 0 4 -11 21 -25 38 -14 16 -25 26
-25 21z"/>
<path d="M45686 54793 c-6 -14 -5 -15 5 -6 7 7 10 15 7 18 -3 3 -9 -2 -12 -12z"/>
<path d="M45800 54680 c0 -5 5 -10 10 -10 6 0 10 5 10 10 0 6 -4 10 -10 10 -5
0 -10 -4 -10 -10z"/>
<path d="M45840 54646 c0 -2 8 -10 18 -17 15 -13 16 -12 3 4 -13 16 -21 21
-21 13z"/>
<path d="M45880 54591 c0 -5 5 -13 10 -16 6 -3 10 -2 10 4 0 5 -4 13 -10 16
-5 3 -10 2 -10 -4z"/>
<path d="M45910 54556 c0 -2 8 -10 18 -17 15 -13 16 -12 3 4 -13 16 -21 21
-21 13z"/>
<path d="M45965 54470 c-3 -5 -1 -10 4 -10 6 0 11 5 11 10 0 6 -2 10 -4 10 -3
0 -8 -4 -11 -10z"/>
<path d="M46014 54426 c4 -10 1 -26 -6 -35 -11 -14 -10 -14 6 0 15 14 16 20 6
35 -11 18 -11 18 -6 0z"/>
<path d="M46055 54360 c3 -5 8 -10 11 -10 2 0 4 5 4 10 0 6 -5 10 -11 10 -5 0
-7 -4 -4 -10z"/>
<path d="M46089 54321 c6 -10 7 -21 3 -25 -3 -4 2 -4 11 0 17 6 17 8 1 25 -22
24 -27 24 -15 0z"/>
<path d="M46132 54260 c7 -10 14 -18 15 -16 6 6 -9 36 -18 36 -5 0 -4 -9 3
-20z"/>
<path d="M46180 54201 c0 -5 5 -13 10 -16 6 -3 10 -2 10 4 0 5 -4 13 -10 16
-5 3 -10 2 -10 -4z"/>
<path d="M46206 54154 c-3 -9 -2 -12 5 -9 5 4 18 1 27 -6 13 -11 12 -8 -2 9
-23 26 -22 26 -30 6z"/>
<path d="M46246 54104 c-3 -9 -2 -12 4 -9 6 4 20 -4 31 -17 19 -21 19 -21 -1
10 -25 37 -26 37 -34 16z"/>
<path d="M46290 54040 c0 -5 5 -10 11 -10 5 0 7 5 4 10 -3 6 -8 10 -11 10 -2
0 -4 -4 -4 -10z"/>
<path d="M46330 54011 c5 -11 15 -23 21 -27 6 -3 3 5 -6 20 -20 30 -30 35 -15
7z"/>
<path d="M46353 53958 c-17 -23 -25 -44 -9 -24 16 19 17 19 48 -10 l31 -29
-28 38 c-31 42 -29 41 -42 25z"/>
<path d="M46360 53920 c0 -5 5 -10 11 -10 5 0 7 5 4 10 -3 6 -8 10 -11 10 -2
0 -4 -4 -4 -10z"/>
<path d="M46420 53841 c0 -6 5 -13 10 -16 6 -3 10 1 10 9 0 9 -4 16 -10 16 -5
0 -10 -4 -10 -9z"/>
<path d="M46493 53714 c-12 -27 -8 -54 9 -54 6 0 5 7 -2 15 -7 9 -10 18 -7 21
9 9 27 -5 27 -22 0 -8 5 -14 10 -14 16 0 11 40 -6 47 -8 3 -13 12 -10 19 10
25 -9 14 -21 -12z"/>
<path d="M46560 53600 c0 -11 4 -20 9 -20 5 0 7 9 4 20 -3 11 -7 20 -9 20 -2
0 -4 -9 -4 -20z"/>
<path d="M46591 53603 c7 -12 15 -20 18 -17 3 2 -3 12 -13 22 -17 16 -18 16
-5 -5z"/>
<path d="M45080 53532 c6 -13 14 -21 18 -18 3 4 -2 14 -12 24 -18 16 -18 16
-6 -6z"/>
<path d="M45130 53445 c7 -9 15 -13 17 -11 7 7 -7 26 -19 26 -6 0 -6 -6 2 -15z"/>
<path d="M45330 53160 c0 -5 5 -10 11 -10 5 0 7 5 4 10 -3 6 -8 10 -11 10 -2
0 -4 -4 -4 -10z"/>
<path d="M45300 53141 c0 -5 5 -13 10 -16 6 -3 10 -2 10 4 0 5 -4 13 -10 16
-5 3 -10 2 -10 -4z"/>
<path d="M45337 53075 c9 -19 18 -33 21 -31 4 5 -26 66 -33 66 -3 0 3 -16 12
-35z"/>
<path d="M45385 53009 c-11 -16 -1 -19 13 -3 7 8 8 14 3 14 -5 0 -13 -5 -16
-11z"/>
<path d="M45406 52984 c-9 -24 -7 -27 9 -10 17 17 19 26 6 26 -5 0 -12 -7 -15
-16z"/>
<path d="M45580 52875 c-10 -12 -10 -15 4 -15 9 0 16 7 16 15 0 8 -2 15 -4 15
-2 0 -9 -7 -16 -15z"/>
<path d="M45471 52835 c-1 -15 25 -46 32 -38 12 11 8 23 -7 23 -8 0 -17 6 -19
13 -3 6 -6 8 -6 2z"/>
<path d="M45500 52774 c1 -14 29 -48 35 -42 3 2 -4 15 -15 28 -11 13 -20 19
-20 14z"/>
<path d="M45566 52763 c-11 -11 -6 -23 9 -23 8 0 15 4 15 9 0 13 -16 22 -24
14z"/>
<path d="M45546 52705 c-3 -8 -1 -15 4 -15 6 0 10 7 10 15 0 8 -2 15 -4 15 -2
0 -6 -7 -10 -15z"/>
<path d="M45580 52700 c-9 -6 -10 -10 -3 -10 6 0 15 5 18 10 8 12 4 12 -15 0z"/>
<path d="M45561 52664 c0 -11 3 -14 6 -6 3 7 2 16 -1 19 -3 4 -6 -2 -5 -13z"/>
<path d="M45584 52646 c-3 -14 -1 -33 5 -43 6 -10 11 -13 11 -6 0 6 8 14 18
16 9 2 7 3 -6 2 -20 -2 -22 1 -17 26 8 35 -2 39 -11 5z"/>
<path d="M45665 52610 c3 -5 8 -10 11 -10 2 0 4 5 4 10 0 6 -5 10 -11 10 -5 0
-7 -4 -4 -10z"/>
<path d="M52586 42585 c-3 -8 -1 -15 4 -15 6 0 10 7 10 15 0 8 -2 15 -4 15 -2
0 -6 -7 -10 -15z"/>
<path d="M52622 42560 c0 -14 2 -19 5 -12 2 6 2 18 0 25 -3 6 -5 1 -5 -13z"/>
<path d="M52551 42494 c0 -11 3 -14 6 -6 3 7 2 16 -1 19 -3 4 -6 -2 -5 -13z"/>
<path d="M52531 42448 c-25 -66 -41 -121 -37 -125 3 -3 9 10 15 28 5 19 10 26
10 16 1 -10 6 -15 11 -12 8 5 8 11 1 19 -7 8 -7 24 1 50 10 31 13 35 19 20 7
-16 8 -17 8 -2 1 27 -18 31 -28 6z"/>
<path d="M52547 42370 c3 -11 7 -20 9 -20 2 0 4 9 4 20 0 11 -4 20 -9 20 -5 0
-7 -9 -4 -20z"/>
<path d="M52472 42280 c0 -14 2 -19 5 -12 2 6 2 18 0 25 -3 6 -5 1 -5 -13z"/>
<path d="M53202 42280 c0 -14 2 -19 5 -12 2 6 2 18 0 25 -3 6 -5 1 -5 -13z"/>
<path d="M52444 42229 c-4 -7 -3 -9 4 -5 6 3 16 -2 22 -11 10 -17 11 -17 8 1
-4 23 -23 32 -34 15z"/>
<path d="M53201 42204 c0 -11 3 -14 6 -6 3 7 2 16 -1 19 -3 4 -6 -2 -5 -13z"/>
<path d="M52417 42158 c-22 -49 -99 -243 -103 -260 -1 -5 -2 -20 -3 -35 -1
-19 -4 -24 -10 -15 -5 9 -27 -33 -64 -122 -32 -75 -57 -142 -57 -151 0 -8 -4
-15 -9 -15 -5 0 -14 -15 -21 -32 -17 -47 -25 -65 -58 -138 -97 -214 -152 -342
-152 -357 0 -7 -4 -13 -10 -13 -5 0 -10 -4 -10 -9 0 -13 -55 -131 -233 -506
-116 -244 -527 -1057 -622 -1230 -48 -88 -110 -203 -138 -255 -28 -52 -61
-112 -74 -132 -12 -21 -23 -40 -23 -43 0 -14 -412 -725 -587 -1012 -54 -89
-129 -212 -167 -275 -38 -62 -88 -142 -111 -178 -51 -79 -115 -178 -181 -283
-197 -312 -877 -1306 -913 -1337 -4 -3 -15 -18 -25 -35 -20 -31 -54 -79 -149
-206 -31 -41 -57 -81 -57 -87 0 -7 -4 -12 -9 -12 -11 0 -231 -295 -231 -310 0
-5 -4 -10 -8 -10 -5 0 -23 -20 -42 -45 -18 -24 -38 -41 -43 -38 -6 3 -7 2 -4
-4 3 -5 -1 -20 -10 -32 l-15 -23 -19 29 c-11 16 -19 46 -19 71 l0 42 -40 0
-40 0 0 40 0 40 -80 0 -80 0 0 40 0 40 -40 0 -40 0 0 40 0 40 -40 0 -40 0 0
40 0 40 -80 0 -80 0 0 40 0 40 -40 0 -40 0 0 40 0 40 -40 0 -40 0 0 40 0 40
-80 0 -80 0 0 40 0 40 -40 0 -40 0 0 40 0 40 -40 0 -40 0 0 40 0 40 -80 0 -80
0 0 40 0 40 -40 0 -40 0 0 40 0 40 -40 0 -40 0 0 40 0 40 -80 0 -80 0 0 40 0
40 -40 0 -40 0 0 40 c0 22 0 43 1 46 0 4 -3 10 -8 13 -14 10 -33 61 -23 61 6
0 10 -4 10 -10 0 -5 5 -10 12 -10 9 0 9 3 0 12 -13 13 -16 32 -4 24 4 -2 7 7
7 22 -1 31 12 65 24 58 7 -5 41 28 41 39 0 3 -11 -2 -25 -11 -13 -8 -30 -12
-36 -8 -8 4 -9 3 -5 -4 4 -6 -1 -24 -11 -39 -10 -15 -12 -24 -5 -20 19 12 14
-7 -8 -31 -11 -12 -20 -25 -20 -29 -1 -4 -9 -26 -20 -48 -10 -22 -16 -43 -14
-47 3 -5 0 -8 -7 -8 -8 0 -8 -4 1 -15 10 -12 10 -15 0 -15 -10 0 -10 -3 0 -15
12 -15 10 -17 -19 -19 -8 -1 -16 -8 -18 -16 -4 -13 -3 -13 6 0 6 8 11 10 11 5
0 -6 -10 -19 -21 -29 -18 -15 -19 -20 -8 -27 11 -8 10 -12 -6 -25 -11 -8 -19
-20 -17 -26 1 -6 -5 -17 -15 -25 -10 -8 -13 -12 -8 -9 6 2 11 -4 11 -14 0 -15
-3 -17 -15 -7 -12 10 -14 9 -8 -5 3 -9 3 -18 -2 -20 -13 -6 -81 -160 -74 -171
3 -6 1 -7 -5 -3 -7 4 -12 3 -12 -3 0 -6 -29 -71 -65 -146 -36 -74 -63 -140
-59 -147 4 -6 3 -8 -3 -5 -5 3 -19 -14 -32 -40 -18 -37 -20 -48 -9 -62 11 -14
11 -14 -2 -4 -13 10 -23 -4 -68 -88 -29 -54 -49 -99 -45 -99 4 0 3 -4 -2 -8
-10 -6 -125 -204 -125 -214 0 -7 -126 -225 -228 -396 -51 -84 -92 -154 -92
-157 0 -2 -13 -24 -29 -47 -16 -24 -97 -145 -180 -270 -287 -434 -499 -721
-830 -1123 -570 -692 -1293 -1395 -2004 -1948 -1307 -1018 -2714 -1745 -4282
-2214 -996 -297 -1976 -462 -3050 -513 -131 -6 -1501 -10 -3638 -10 -2092 0
-3427 -4 -3425 -9 4 -14 255 -305 452 -526 950 -1066 2039 -2103 3136 -2986
1179 -948 2454 -1807 3765 -2536 162 -90 262 -144 550 -298 170 -91 840 -423
1080 -535 1249 -583 2527 -1063 3830 -1441 l239 -69 121 37 c244 75 798 264
1060 361 311 115 736 281 749 292 4 5 -32 20 -80 35 -789 236 -1711 578 -2479
918 -471 208 -981 455 -1380 667 -104 55 -208 110 -230 121 -64 33 -116 65
-111 70 3 3 -3 5 -13 6 -29 2 -240 126 -234 137 4 5 1 6 -5 2 -15 -9 -193 94
-185 107 3 6 1 7 -5 3 -15 -9 -123 55 -115 68 3 5 1 6 -5 3 -17 -11 -41 3 -35
21 3 13 2 14 -4 4 -8 -10 -26 -3 -81 31 -39 24 -69 47 -67 51 3 3 2 4 -1 1
-10 -7 -65 25 -59 34 2 5 -3 8 -13 7 -9 0 -16 5 -14 12 1 8 -2 11 -8 7 -15
-10 -122 57 -107 68 7 5 4 6 -9 2 -13 -3 -30 2 -45 13 -13 10 -45 31 -71 46
-27 15 -48 35 -49 44 0 10 -3 12 -6 5 -3 -9 -16 -4 -44 14 -21 14 -36 29 -33
34 3 5 -2 6 -10 3 -8 -3 -23 3 -33 13 -10 10 -36 26 -56 36 -21 9 -35 22 -32
27 9 14 25 12 22 -2 -1 -7 4 -13 12 -13 8 0 15 7 16 16 2 12 -5 15 -31 13 -19
-1 -36 2 -39 6 -3 5 -13 6 -22 3 -12 -5 -15 -2 -10 10 4 11 -2 22 -16 32 -32
22 -46 18 -17 -5 30 -24 19 -26 -15 -4 -14 9 -22 20 -19 25 9 16 49 10 71 -10
21 -20 21 -20 19 4 -1 24 -3 24 -68 20 -65 -4 -68 -3 -115 34 -26 20 -70 50
-96 66 -27 15 -54 36 -60 45 -6 10 -16 16 -22 14 -6 -3 -22 5 -35 16 -13 12
-39 30 -57 41 -49 31 -40 35 11 5 l43 -25 -1 22 c-1 22 -5 24 -84 28 -14 1
-21 6 -18 14 2 7 -4 21 -15 31 -15 13 -16 19 -7 26 7 4 20 7 28 7 11 0 10 -2
-3 -7 -16 -7 -16 -8 2 -24 18 -15 19 -12 20 168 l2 184 -41 0 -40 0 0 164 c0
163 0 165 -22 169 -13 2 -3 2 22 0 75 -7 80 -10 80 -54 0 -28 4 -39 15 -39 11
0 15 11 15 39 0 31 -4 40 -20 44 -17 4 -19 11 -14 31 6 24 -10 39 -18 17 -1
-5 -32 -12 -68 -15 -56 -5 -60 -4 -30 5 19 6 49 13 65 16 17 3 32 9 35 14 3 4
102 10 220 14 544 15 1448 84 2230 171 1716 189 3288 482 5080 945 270 70
1076 299 1335 379 903 280 1288 409 2095 700 394 142 1077 410 1595 625 234
97 834 356 960 415 22 10 96 44 165 75 197 90 466 215 700 325 146 69 1192
594 1407 706 214 112 159 92 -145 -52 -51 -24 -94 -44 -97 -44 -3 0 -76 -32
-162 -71 -87 -40 -187 -84 -223 -99 -36 -15 -114 -49 -175 -75 -510 -218
-1086 -444 -1760 -688 -192 -70 -973 -330 -1190 -396 -344 -105 -626 -188
-860 -251 -44 -12 -100 -28 -125 -35 -119 -34 -503 -133 -535 -138 -11 -1 -25
-5 -30 -9 -6 -3 -28 -9 -50 -13 -22 -4 -53 -11 -70 -16 -16 -5 -61 -16 -99
-25 -38 -9 -79 -18 -90 -21 -90 -21 -114 -26 -133 -25 -13 0 -21 -4 -18 -8 2
-4 -27 -12 -65 -19 -145 -24 -180 -10 -180 70 0 37 -4 49 -15 49 -11 0 -15 11
-15 40 0 36 -2 40 -25 40 l-25 0 0 120 c0 100 -2 120 -15 120 -11 0 -15 11
-15 40 0 36 -2 40 -25 40 l-25 0 0 120 c0 100 -2 120 -15 120 -11 0 -15 11
-15 40 0 36 -2 40 -25 40 l-25 0 0 120 c0 100 -2 120 -15 120 -11 0 -15 11
-15 40 0 36 -2 40 -25 40 l-25 0 0 120 c0 100 -2 120 -15 120 -11 0 -15 11
-15 40 0 36 -2 40 -25 40 l-25 0 0 120 c0 100 -2 120 -15 120 -11 0 -15 11
-15 40 0 36 -2 40 -25 40 l-25 0 0 120 c0 100 -2 120 -15 120 -11 0 -15 11
-15 40 0 36 -2 40 -25 40 l-25 0 0 120 c0 100 -2 120 -15 120 -11 0 -15 11
-15 40 0 36 -2 40 -25 40 l-25 0 0 120 c0 100 -2 120 -15 120 -11 0 -15 11
-15 40 0 36 -2 40 -25 40 l-25 0 0 120 c0 100 -2 120 -15 120 -11 0 -15 11
-15 40 0 36 -2 40 -26 40 l-25 0 3 123 3 123 -30 -3 c-16 -2 8 10 55 26 50 18
95 28 110 25 18 -4 21 -3 11 4 -10 7 4 15 53 32 36 12 71 18 77 14 7 -4 9 -3
6 3 -3 5 36 23 86 40 51 17 125 43 166 58 40 14 80 24 88 21 8 -3 12 -2 9 2
-3 5 37 23 87 41 51 17 108 38 127 46 19 8 103 39 185 69 241 89 488 185 710
276 83 34 182 75 220 90 80 32 547 234 710 308 486 218 1121 531 1595 784 52
28 129 69 170 91 207 111 760 425 850 482 19 12 87 53 150 90 587 347 1482
944 2084 1390 66 50 131 97 142 105 12 8 77 58 145 110 68 53 165 127 214 165
432 333 1090 882 1426 1189 31 28 73 67 95 86 101 91 286 261 354 325 148 142
338 324 472 456 l137 134 45 220 c54 265 89 451 90 485 1 14 4 27 7 30 7 6 83
464 84 505 0 17 4 36 9 43 4 7 5 25 1 39 -3 15 -2 29 4 32 6 4 12 31 14 62 1
30 6 60 11 67 4 7 5 26 1 42 -4 20 -3 30 5 30 8 0 11 11 8 30 -2 16 -1 31 3
32 4 2 10 35 13 73 5 71 21 196 32 250 l6 30 -30 -30 c-16 -16 -27 -36 -24
-43 2 -8 -1 -10 -11 -6 -9 3 -21 -4 -31 -18 -9 -12 -16 -18 -16 -13 0 6 -21
-12 -48 -40 -26 -27 -46 -54 -44 -58 1 -5 -2 -6 -7 -3 -5 3 -26 -13 -47 -36
-20 -24 -31 -34 -24 -23 8 11 1 7 -15 -9 -22 -23 -25 -30 -14 -38 10 -7 9 -8
-6 -4 -15 4 -39 -13 -95 -66 -41 -39 -85 -77 -98 -86 -13 -8 -21 -21 -18 -29
3 -8 1 -11 -4 -8 -5 3 -70 -47 -143 -112 -74 -65 -158 -138 -187 -163 -29 -25
-61 -52 -70 -60 -10 -8 -44 -37 -76 -65 -32 -27 -79 -68 -105 -90 -25 -22 -60
-52 -77 -66 -57 -48 -527 -425 -587 -470 -33 -25 -119 -90 -190 -145 -72 -54
-140 -106 -151 -114 -12 -8 -101 -73 -199 -145 -676 -496 -1550 -1054 -2255
-1440 -69 -37 -145 -79 -170 -93 -543 -301 -1433 -729 -1990 -957 -30 -13
-100 -41 -154 -64 -55 -23 -103 -41 -107 -41 -4 0 15 39 43 88 60 103 279 497
333 597 21 39 52 97 70 130 138 254 528 1021 648 1275 25 52 77 162 116 243
39 82 71 150 71 152 0 1 20 45 44 96 93 197 246 543 371 834 141 332 198 467
235 560 17 44 38 94 45 110 18 41 166 419 227 580 27 72 53 139 58 150 22 48
268 726 329 910 16 50 59 176 94 280 173 512 260 792 251 807 -4 7 -3 9 1 5 5
-4 15 12 23 35 38 122 65 209 81 264 11 34 22 72 26 84 5 16 4 20 -5 15 -7 -4
-4 4 5 18 9 15 13 32 9 38 -4 8 -3 9 4 5 7 -4 12 -3 12 3 0 5 -4 13 -10 16 -5
3 -10 12 -10 18 0 8 3 8 9 -2 5 -7 11 -9 14 -5 12 20 56 187 51 195 -2 5 5 27
16 49 18 35 19 44 8 58 -11 13 -11 15 3 10 12 -5 18 4 26 38 6 24 6 41 2 38
-5 -3 -4 7 1 21 13 35 13 71 -2 112 -11 29 -16 33 -50 33 -38 0 -38 0 -38 40
l0 40 -80 0 -80 0 0 40 0 40 -40 0 -40 0 0 40 0 40 -40 0 -40 0 0 40 0 40 -80
0 c-73 0 -80 2 -80 19 0 11 -4 22 -9 25 -4 3 -6 -6 -3 -19 3 -20 0 -25 -18
-25 -21 0 -22 6 -3 58 3 6 3 12 0 12 -3 0 -16 -24 -30 -52z m-21 -104 c-4 -9
-9 -15 -11 -12 -3 3 -3 13 1 22 4 9 9 15 11 12 3 -3 3 -13 -1 -22z m-31 -79
c-12 -36 -13 -51 -4 -61 7 -9 8 -14 1 -14 -19 0 -21 30 -5 80 9 28 18 48 20
46 3 -2 -3 -25 -12 -51z m30 -25 c0 -32 -9 -40 -19 -15 -6 16 2 45 13 45 3 0
6 -13 6 -30z m-87 -151 c-3 -8 -7 -3 -11 10 -4 17 -3 21 5 13 5 -5 8 -16 6
-23z m739 -91 c-3 -7 -5 -2 -5 12 0 14 2 19 5 13 2 -7 2 -19 0 -25z m-55 -170
c-5 -49 -33 -54 -31 -5 l1 32 9 -30 c8 -30 8 -30 6 6 -2 20 2 36 8 36 6 0 9
-16 7 -39z m-15 -125 c-3 -10 -5 -4 -5 12 0 17 2 24 5 18 2 -7 2 -21 0 -30z
m-71 -118 c3 -13 4 -30 1 -37 -3 -7 -6 -1 -6 15 -1 15 -5 27 -11 27 -5 0 -10
5 -10 10 0 20 20 9 26 -15z m31 3 c-3 -8 -6 -5 -6 6 -1 11 2 17 5 13 3 -3 4
-12 1 -19z m-906 -105 c-12 -20 -14 -14 -5 12 4 9 9 14 11 11 3 -2 0 -13 -6
-23z m4779 -2800 c-10 -16 -11 -15 -6 7 3 14 6 32 7 40 1 8 4 5 6 -7 2 -12 -1
-30 -7 -40z m-25 -11 c-3 -3 -11 0 -18 7 -9 10 -8 11 6 5 10 -3 15 -9 12 -12z
m-68 -44 c2 -17 0 -19 -7 -8 -5 8 -6 18 -4 22 8 12 10 10 11 -14z m-22 -28
c-3 -5 -12 -10 -18 -10 -7 0 -6 4 3 10 19 12 23 12 15 0z m-225 -200 c0 -5 -5
-10 -11 -10 -5 0 -7 5 -4 10 3 6 8 10 11 10 2 0 4 -4 4 -10z m289 -90 c0 -10
-3 -8 -9 5 -12 27 -12 43 0 25 5 -8 9 -22 9 -30z m-12 -82 c-3 -8 -6 -5 -6 6
-1 11 2 17 5 13 3 -3 4 -12 1 -19z m-80 -400 c-3 -8 -6 -5 -6 6 -1 11 2 17 5
13 3 -3 4 -12 1 -19z m-10059 -1206 c8 -24 7 -28 -9 -29 -10 -1 -21 2 -24 8
-4 5 1 9 10 9 12 0 15 6 10 20 -10 31 2 24 13 -8z m-58 -171 c-6 -12 -16 -21
-23 -21 -8 0 -9 3 -1 8 6 4 14 16 17 26 4 10 10 16 13 13 3 -3 1 -15 -6 -26z
m-79 -174 c-10 -9 -11 -8 -5 6 3 10 9 15 12 12 3 -3 0 -11 -7 -18z m-28 -12
c-3 -9 -8 -14 -10 -11 -3 3 -2 9 2 15 9 16 15 13 8 -4z m-46 -127 c-3 -8 -6
-5 -6 6 -1 11 2 17 5 13 3 -3 4 -12 1 -19z m-27 -89 c-7 -11 -14 -19 -16 -16
-7 7 7 37 17 37 6 0 5 -9 -1 -21z m1879 -835 c-14 -13 -17 -13 -30 2 -12 16
-12 17 3 11 10 -3 20 -2 24 4 3 6 9 8 12 4 3 -3 -1 -12 -9 -21z m-35 -20 c9
-22 -3 -32 -14 -14 -12 19 -12 30 -1 30 5 0 12 -7 15 -16z m-58 -94 c-14 -17
-26 -26 -26 -19 0 12 42 57 49 52 2 -1 -8 -16 -23 -33z m-2261 -4770 c-3 -5 1
-10 9 -10 9 0 16 -6 16 -14 0 -11 -7 -12 -27 -7 -32 9 -41 28 -16 34 10 3 19
5 21 6 2 0 0 -3 -3 -9z m-36 -40 c3 0 -1 -6 -7 -12 -10 -10 -14 -10 -21 0 -6
10 -14 10 -35 2 -35 -13 -37 -13 -33 3 3 19 29 25 62 16 16 -5 32 -9 34 -9z
m38 -16 c-3 -3 -12 -4 -19 -1 -8 3 -5 6 6 6 11 1 17 -2 13 -5z m-217 -19 c0
-9 -9 -15 -22 -15 -21 0 -21 0 -2 15 24 18 24 18 24 0z m-72 -19 c-7 -7 -19
-11 -27 -8 -11 4 -10 7 5 13 29 12 36 10 22 -5z m69 -19 c0 -9 -11 -14 -28
-13 -30 1 -27 11 6 19 11 3 20 5 21 6 0 0 1 -5 1 -12z m-130 -23 c-3 -3 -12
-4 -19 -1 -8 3 -5 6 6 6 11 1 17 -2 13 -5z m-137 -14 c-8 -5 -19 -10 -25 -10
-5 0 -3 5 5 10 8 5 20 10 25 10 6 0 3 -5 -5 -10z m-23 -56 c-3 -3 -12 -4 -19
-1 -8 3 -5 6 6 6 11 1 17 -2 13 -5z m1457 -3114 c26 0 18 -6 -19 -14 -22 -5
-26 -4 -15 4 10 6 11 10 3 10 -7 0 -13 5 -13 12 0 9 3 9 12 0 7 -7 21 -12 32
-12z m-324 -24 c0 -2 -9 -6 -20 -9 -11 -3 -20 -1 -20 4 0 5 9 9 20 9 11 0 20
-2 20 -4z m136 -11 c20 -15 13 -18 -23 -9 -13 4 -23 10 -23 15 0 14 24 11 46
-6z m114 11 c0 -2 -11 -6 -25 -8 -13 -3 -22 -1 -19 3 5 9 44 13 44 5z m-197
-43 c-62 -16 -80 -15 -28 2 l40 13 -35 2 c-32 2 -33 3 -10 9 14 4 38 2 53 -3
28 -11 28 -11 -20 -23z m-9803 -2293 c-34 -11 -60 -11 -35 0 11 5 29 8 40 8
16 0 15 -2 -5 -8z m88 3 c-10 -2 -26 -2 -35 0 -10 3 -2 5 17 5 19 0 27 -2 18
-5z m72 -2 c-8 -5 -31 -12 -50 -15 l-35 -6 30 14 c33 16 82 22 55 7z m-383 -7
c-3 -3 -12 -4 -19 -1 -8 3 -5 6 6 6 11 1 17 -2 13 -5z m6 -21 c-7 -2 -19 -2
-25 0 -7 3 -2 5 12 5 14 0 19 -2 13 -5z m192 -3 c31 -7 24 -7 -30 -3 -38 3
-72 7 -74 9 -8 7 64 3 104 -6z m108 -2 c15 -7 27 -16 27 -20 0 -11 -18 -10
-25 2 -3 6 -17 10 -31 10 -13 0 -24 5 -24 10 0 14 20 13 53 -2z m-150 -25
c-13 -2 -33 -2 -45 0 -13 2 -3 4 22 4 25 0 35 -2 23 -4z m110 0 c-7 -2 -19 -2
-25 0 -7 3 -2 5 12 5 14 0 19 -2 13 -5z m-658 -91 c-3 -3 -11 0 -18 7 -9 10
-8 11 6 5 10 -3 15 -9 12 -12z m75 -24 c0 -6 -6 -5 -15 2 -8 7 -15 14 -15 16
0 2 7 1 15 -2 8 -4 15 -11 15 -16z m-5 -26 c-3 -3 -11 0 -18 7 -9 10 -8 11 6
5 10 -3 15 -9 12 -12z m165 -32 c0 -5 -5 -10 -11 -10 -5 0 -7 5 -4 10 3 6 8
10 11 10 2 0 4 -4 4 -10z m-93 -15 c13 -9 23 -11 26 -5 3 6 4 5 3 -2 -4 -18
51 -61 66 -52 7 4 10 4 6 -1 -4 -4 -2 -15 5 -24 13 -16 -27 10 -101 66 -43 32
-47 47 -5 18z m82 -39 c-3 -3 -11 5 -18 17 -13 21 -12 21 5 5 10 -10 16 -20
13 -22z m56 -66 c3 -5 1 -10 -4 -10 -6 0 -11 5 -11 10 0 6 2 10 4 10 3 0 8 -4
11 -10z m79 -36 c16 -6 12 -24 -5 -24 -6 0 -7 5 -3 12 5 8 2 9 -10 5 -10 -4
-15 -3 -11 3 7 12 8 12 29 4z m33 -31 c-4 -3 -1 -13 6 -21 11 -13 9 -14 -10
-1 -16 9 -19 16 -10 21 15 9 23 10 14 1z m94 -62 c-6 -10 -7 -22 -3 -26 4 -4
-3 -3 -15 4 -12 6 -25 17 -29 24 -5 9 -4 9 7 0 15 -15 33 -17 25 -4 -5 8 3 15
22 20 1 1 -2 -7 -7 -18z m60 -11 c5 0 9 -6 9 -14 0 -11 -5 -12 -25 -3 -27 13
-35 33 -9 23 9 -3 20 -6 25 -6z m-26 -30 c3 -5 2 -10 -4 -10 -5 0 -13 5 -16
10 -3 6 -2 10 4 10 5 0 13 -4 16 -10z m36 -19 c-11 -7 -10 -11 5 -20 11 -6 14
-11 8 -11 -6 0 -17 6 -23 13 -11 14 -5 27 13 27 6 0 5 -4 -3 -9z m79 -10 c0
-5 -7 -11 -15 -15 -8 -3 -15 -10 -15 -17 0 -6 7 -9 15 -5 8 3 15 1 15 -4 0
-12 -20 -13 -39 -1 -11 7 -10 12 5 29 21 22 34 27 34 13z m47 -83 c10 -16 35
-17 46 -3 5 6 5 0 2 -12 -7 -26 -3 -28 24 -11 15 9 23 9 36 -2 9 -7 14 -19 11
-27 -3 -7 0 -13 7 -14 8 0 7 -2 -2 -6 -9 -4 -5 -12 15 -30 31 -26 23 -23 -38
16 -21 12 -38 27 -38 32 0 5 -6 9 -13 9 -16 0 -86 59 -70 60 7 0 16 -6 20 -12z
m273 -168 c0 -5 -2 -10 -4 -10 -3 0 -8 5 -11 10 -3 6 -1 10 4 10 6 0 11 -4 11
-10z"/>
<path d="M36910 23682 c0 -12 22 -32 35 -32 5 0 3 5 -5 10 -10 6 -11 10 -2 10
6 0 12 5 12 10 0 6 -9 10 -20 10 -11 0 -20 -4 -20 -8z"/>
<path d="M53156 42049 c-8 -42 0 -50 9 -9 4 17 5 34 2 36 -2 3 -7 -10 -11 -27z"/>
<path d="M53130 42049 c0 -5 5 -7 10 -4 6 3 10 8 10 11 0 2 -4 4 -10 4 -5 0
-10 -5 -10 -11z"/>
<path d="M53131 42020 c0 -8 4 -24 9 -35 5 -13 9 -14 9 -5 0 8 -4 24 -9 35 -5
13 -9 14 -9 5z"/>
<path d="M53122 41950 c0 -19 2 -27 5 -17 2 9 2 25 0 35 -3 9 -5 1 -5 -18z"/>
<path d="M53071 41864 c0 -11 3 -14 6 -6 3 7 2 16 -1 19 -3 4 -6 -2 -5 -13z"/>
<path d="M53096 41846 c-23 -49 -19 -59 5 -13 11 22 18 41 16 43 -2 3 -12 -11
-21 -30z"/>
<path d="M53072 41750 c0 -19 2 -27 5 -17 2 9 2 25 0 35 -3 9 -5 1 -5 -18z"/>
<path d="M46936 37193 c-6 -14 -5 -15 5 -6 7 7 10 15 7 18 -3 3 -9 -2 -12 -12z"/>
<path d="M46856 37087 c3 -10 9 -15 12 -12 3 3 0 11 -7 18 -10 9 -11 8 -5 -6z"/>
<path d="M46840 37014 c0 -5 7 -18 15 -28 8 -11 15 -16 15 -10 0 5 -7 18 -15
28 -8 11 -15 16 -15 10z"/>
<path d="M46810 36961 c0 -6 4 -13 10 -16 6 -3 7 1 4 9 -7 18 -14 21 -14 7z"/>
<path d="M46776 36858 c3 -5 10 -6 15 -3 13 9 11 12 -6 12 -8 0 -12 -4 -9 -9z"/>
<path d="M46790 36812 c0 -6 -9 -9 -20 -7 -12 2 -18 0 -15 -6 4 -5 11 -7 16
-4 5 4 9 -2 10 -12 0 -14 3 -12 10 6 5 13 7 26 4 29 -3 3 -5 0 -5 -6z"/>
<path d="M46745 36770 c-3 -5 -1 -10 5 -10 7 0 10 -7 6 -15 -3 -8 -1 -15 4
-15 13 0 13 37 1 45 -5 3 -12 1 -16 -5z"/>
<path d="M46770 36710 c0 -5 5 -10 11 -10 5 0 7 5 4 10 -3 6 -8 10 -11 10 -2
0 -4 -4 -4 -10z"/>
<path d="M46686 36617 c3 -10 9 -15 12 -12 3 3 0 11 -7 18 -10 9 -11 8 -5 -6z"/>
<path d="M46685 36580 c-3 -5 -1 -10 4 -10 6 0 11 5 11 10 0 6 -2 10 -4 10 -3
0 -8 -4 -11 -10z"/>
<path d="M46678 36546 c3 -5 -1 -7 -9 -4 -10 4 -15 -1 -15 -13 0 -22 12 -25
23 -6 4 8 17 19 28 24 18 10 17 11 -7 10 -14 -1 -24 -6 -20 -11z"/>
<path d="M46703 36491 c-6 -18 -7 -31 -2 -31 12 0 22 24 17 45 -2 12 -7 7 -15
-14z"/>
<path d="M48328 35078 c2 -10 6 -18 8 -18 2 0 8 8 13 18 7 14 6 18 -8 18 -12
0 -17 -6 -13 -18z"/>
<path d="M46357 30191 c-33 -16 -36 -19 -18 -24 12 -3 19 -1 15 4 -3 5 -1 9 3
9 5 0 18 7 29 15 25 19 18 18 -29 -4z"/>
<path d="M46288 30143 c7 -3 16 -2 19 1 4 3 -2 6 -13 5 -11 0 -14 -3 -6 -6z"/>
<path d="M46073 30094 c-35 -15 -44 -34 -17 -34 8 0 12 4 9 10 -8 13 39 24 73
15 26 -6 26 -6 7 9 -24 18 -31 18 -72 0z"/>
<path d="M46093 30063 c-15 -6 -18 -83 -3 -83 6 0 10 18 10 39 0 29 5 41 18
44 11 3 12 5 2 5 -8 0 -21 -2 -27 -5z"/>
<path d="M46160 29700 c0 -22 5 -40 10 -40 6 0 10 18 10 40 0 22 -4 40 -10 40
-5 0 -10 -18 -10 -40z"/>
<path d="M46240 29380 c0 -22 5 -40 10 -40 6 0 10 18 10 40 0 22 -4 40 -10 40
-5 0 -10 -18 -10 -40z"/>
<path d="M46320 29060 c0 -22 5 -40 10 -40 6 0 10 18 10 40 0 22 -4 40 -10 40
-5 0 -10 -18 -10 -40z"/>
<path d="M46400 28740 c0 -22 5 -40 10 -40 6 0 10 18 10 40 0 22 -4 40 -10 40
-5 0 -10 -18 -10 -40z"/>
<path d="M46480 28420 c0 -22 5 -40 10 -40 6 0 10 18 10 40 0 22 -4 40 -10 40
-5 0 -10 -18 -10 -40z"/>
<path d="M46560 28100 c0 -22 5 -40 10 -40 6 0 10 18 10 40 0 22 -4 40 -10 40
-5 0 -10 -18 -10 -40z"/>
<path d="M46640 27780 c0 -22 5 -40 10 -40 6 0 10 18 10 40 0 22 -4 40 -10 40
-5 0 -10 -18 -10 -40z"/>
<path d="M46720 27460 c0 -22 5 -40 10 -40 6 0 10 18 10 40 0 22 -4 40 -10 40
-5 0 -10 -18 -10 -40z"/>
<path d="M46800 27140 c0 -22 5 -40 10 -40 6 0 10 18 10 40 0 22 -4 40 -10 40
-5 0 -10 -18 -10 -40z"/>
<path d="M46880 26820 c0 -34 -3 -40 -22 -40 -12 0 -19 -3 -15 -6 3 -4 18 -4
32 0 21 5 25 12 25 46 0 22 -4 40 -10 40 -5 0 -10 -18 -10 -40z"/>
<path d="M46887 26748 c24 -5 49 -6 57 -1 9 5 -8 9 -42 9 l-57 2 42 -10z"/>
<path d="M37120 23940 c0 -29 4 -40 15 -40 11 0 15 11 15 40 0 29 -4 40 -15
40 -11 0 -15 -11 -15 -40z"/>
<path d="M37200 23620 c0 -29 4 -40 15 -40 11 0 15 11 15 40 0 29 -4 40 -15
40 -11 0 -15 -11 -15 -40z"/>
<path d="M37185 23490 c-7 -11 22 -26 32 -16 4 3 -2 6 -13 7 -18 0 -18 1 1 9
16 7 17 9 3 9 -9 1 -20 -4 -23 -9z"/>
<path d="M37244 23484 c9 -8 21 -12 27 -8 13 7 -7 24 -29 24 -10 0 -10 -4 2
-16z"/>
<path d="M37230 23466 c0 -4 7 -14 15 -22 8 -9 15 -11 15 -6 0 5 -7 15 -15 22
-8 7 -15 9 -15 6z"/>
<path d="M37303 23405 c7 -6 22 -17 33 -23 19 -10 21 -9 20 11 -1 17 -8 22
-33 23 -25 1 -29 -1 -20 -11z m47 1 c0 -3 -4 -8 -10 -11 -5 -3 -10 -1 -10 4 0
6 5 11 10 11 6 0 10 -2 10 -4z"/>
<path d="M37650 23200 c0 -5 5 -10 11 -10 5 0 7 5 4 10 -3 6 -8 10 -11 10 -2
0 -4 -4 -4 -10z"/>
<path d="M37697 23169 c7 -7 15 -10 18 -7 3 3 -2 9 -12 12 -14 6 -15 5 -6 -5z"/>
<path d="M37730 23176 c0 -2 7 -7 16 -10 8 -3 12 -2 9 4 -6 10 -25 14 -25 6z"/>
<path d="M37833 23075 c0 -8 4 -12 9 -9 4 3 8 9 8 15 0 5 -4 9 -8 9 -5 0 -9
-7 -9 -15z"/>
</g>
</svg>
